<?xml version="1.0" encoding="UTF-8"?>
<svg width="20px" height="19px" viewBox="0 0 20 19" version="1.1" xmlns="http://www.w3.org/2000/svg" xmlns:xlink="http://www.w3.org/1999/xlink">
    <title>icon_like</title>
    <g id="Page-1" stroke="none" stroke-width="1" fill="none" fill-rule="evenodd">
        <g id="Desktop-HD" transform="translate(-155.000000, -549.000000)" stroke="#4B4B4B">
            <path d="M164.633009,552.285468 C163.683185,551.258989 162.691493,550.617943 161.718895,550.308453 C160.686051,549.979793 159.680255,550.029916 158.790709,550.377754 C157.82172,550.756657 156.99296,551.485055 156.410129,552.445088 C155.835474,553.391653 155.5,554.562718 155.5,555.856173 C155.5,559.303367 158.748148,562.990771 164.999817,566.994168 C171.251449,562.991227 174.5,559.30358 174.5,555.856173 C174.5,554.562718 174.164526,553.391653 173.589871,552.445088 C173.00704,551.485055 172.17828,550.756657 171.209291,550.377754 C170.319745,550.029916 169.313949,549.979793 168.281105,550.308453 C167.308507,550.617943 166.316815,551.258989 165.366991,552.285468 C165.237538,552.425368 165.115283,552.565489 165.000079,552.705688 C164.884826,552.565615 164.76252,552.425431 164.633009,552.285468 Z" id="icon_like"></path>
        </g>
    </g>
</svg>