<?xml version="1.0" encoding="UTF-8"?>
<svg width="130px" height="40px" viewBox="0 0 130 40" version="1.1" xmlns="http://www.w3.org/2000/svg" xmlns:xlink="http://www.w3.org/1999/xlink">
    <title>logo</title>
    <g id="Page-1" stroke="none" stroke-width="1" fill="none" fill-rule="evenodd">
        <g id="Desktop-HD" transform="translate(-135.000000, -21.000000)" fill="#000000" fill-rule="nonzero">
            <path d="M141.153083,21 L144.4884,52.5428571 L144.603411,52.5428571 L147.593694,21 L153.689272,21 L156.794567,52.7714286 L156.909578,52.7714286 L160.129883,21 L165.650407,21 L161.164981,61 L152.769185,61 L150.526472,39.6857143 L150.411461,39.6857143 L148.168749,61 L139.485425,61 L135,21 L141.153083,21 Z M178.614759,21 C184.806129,21 187.845528,24.4857143 187.845528,30.8857143 L187.845528,30.8857143 L187.845528,51.1142857 C187.845528,57.5142857 184.806129,61 178.614759,61 L178.614759,61 L168.821138,61 L168.821138,21 Z M196.537801,21 L201.285726,39.2285714 L201.400134,39.2285714 L206.14806,21 L212.154472,21 L204.203126,47.7428571 L204.203126,61 L197.910695,61 L197.910695,47.7428571 L189.95935,21 L196.537801,21 Z M219.364466,21 L222.699782,52.5428571 L222.814793,52.5428571 L225.805076,21 L231.900654,21 L235.005949,52.7714286 L235.12096,52.7714286 L238.341265,21 L243.861789,21 L239.376363,61 L230.980567,61 L228.737854,39.6857143 L228.622844,39.6857143 L226.380131,61 L217.696807,61 L213.211382,21 L219.364466,21 Z M265,21 L265,26.7142857 L258.56528,26.7142857 L258.56528,61 L252.41033,61 L252.41033,26.7142857 L245.97561,26.7142857 L245.97561,21 L265,21 Z M178.494557,27.3157895 L175.162602,27.3157895 L175.162602,55.7368421 L178.494557,55.7368421 C180.3755,55.7368421 181.504065,54.7136842 181.504065,51.8715789 L181.504065,51.8715789 L181.504065,31.1810526 C181.504065,28.3389474 180.3755,27.3157895 178.494557,27.3157895 L178.494557,27.3157895 Z" id="logo"></path>
        </g>
    </g>
</svg>